<svg xmlns="http://www.w3.org/2000/svg" viewBox="0 0 3600 2000"><defs><style>.cls-1{isolation:isolate;}.cls-2,.cls-84{fill:#fff;}.cls-3{fill:#5cb30b;}.cls-4{fill:#93beff;}.cls-5{fill:#9deeff;}.cls-6{fill:#09459e;}.cls-7{fill:#dfd2ec;}.cls-8{fill:#ae8fcf;}.cls-13,.cls-9{fill:#f2edf7;}.cls-10,.cls-31,.cls-32{fill:#3063ae;}.cls-11{fill:#83c546;}.cls-12{fill:#4c9e00;}.cls-13,.cls-31,.cls-32{mix-blend-mode:multiply;}.cls-14{fill:#9d78c2;}.cls-15{fill:#6597d8;}.cls-16{fill:#598fd5;}.cls-17{fill:#3e7dcf;}.cls-17,.cls-31{opacity:0.5;}.cls-18{fill:#62bdf3;}.cls-19{fill:#bea5d9;}.cls-20{fill:#f7c7a6;}.cls-21{fill:#f19a5e;opacity:0.6;}.cls-22{fill:#f2a36c;}.cls-23{fill:#242424;}.cls-24{fill:#5783c4;}.cls-25{fill:#f7f3fa;}.cls-26{fill:#b89bd7;}.cls-27,.cls-30{fill:#8959bd;}.cls-28{fill:#f3eef8;}.cls-29{fill:#b395d5;}.cls-30,.cls-32,.cls-34{opacity:0.3;}.cls-33{fill:#698ec4;}.cls-34{fill:#5881bd;mix-blend-mode:screen;}.cls-35{fill:#f7f5fb;}.cls-36{fill:#9369bf;}.cls-37{font-size:212px;}.cls-37,.cls-52,.cls-63{fill:#1d509f;font-family:ChickenScratchAOE, ChickenScratch AOE;}.cls-38{letter-spacing:-0.13em;}.cls-39{letter-spacing:-0.03em;}.cls-40{letter-spacing:-0.07em;}.cls-41{letter-spacing:-0.05em;}.cls-42{letter-spacing:-0.14em;}.cls-43{letter-spacing:-0.02em;}.cls-44{letter-spacing:-0.33em;}.cls-45{letter-spacing:-0.08em;}.cls-46{letter-spacing:0em;}.cls-47{letter-spacing:-0.02em;}.cls-48{letter-spacing:-0.09em;}.cls-49{letter-spacing:-0.04em;}.cls-50{letter-spacing:-0.04em;}.cls-51{letter-spacing:-0.1em;}.cls-52{font-size:213px;}.cls-53{letter-spacing:-0.07em;}.cls-54{letter-spacing:-0.06em;}.cls-55{letter-spacing:0em;}.cls-56{letter-spacing:-0.13em;}.cls-57{letter-spacing:0em;}.cls-58{letter-spacing:-0.11em;}.cls-59{letter-spacing:-0.06em;}.cls-60{letter-spacing:-0.05em;}.cls-61{letter-spacing:-0.12em;}.cls-62{letter-spacing:-0.08em;}.cls-63{font-size:129px;}.cls-64{letter-spacing:-0.07em;}.cls-65{letter-spacing:0em;}.cls-66{letter-spacing:-0.05em;}.cls-67{letter-spacing:-0.11em;}.cls-68{letter-spacing:-0.12em;}.cls-69{letter-spacing:-0.08em;}.cls-70{letter-spacing:-0.13em;}.cls-71{letter-spacing:-0.01em;}.cls-72{letter-spacing:-0.05em;}.cls-73{letter-spacing:-0.08em;}.cls-74{letter-spacing:0em;}.cls-75{letter-spacing:-0.04em;}.cls-76{letter-spacing:-0.02em;}.cls-77{letter-spacing:-0.13em;}.cls-78{letter-spacing:-0.12em;}.cls-79{letter-spacing:-0.07em;}.cls-80{letter-spacing:-0.04em;}.cls-81{letter-spacing:-0.06em;}.cls-82{letter-spacing:-0.14em;}.cls-83{letter-spacing:-0.02em;}.cls-84{font-size:82px;font-family:CallOfOpsDuty, Call Of Ops Duty;}</style></defs><title>jc</title><g class="cls-1"><g id="Layer_1" data-name="Layer 1"><rect class="cls-2" width="3600" height="2000"/><path class="cls-3" d="M2646.34,1306.5H2241.6c-44.59,0-80.74,36.73-80.74,82h0c0,45.31,36.15,82,80.74,82h404.74c44.59,0,80.74-36.74,80.74-82h0C2727.08,1343.23,2690.93,1306.5,2646.34,1306.5Z" transform="translate(0)"/><path class="cls-4" d="M3600,1470.6c-260.38,1-720.86,306.25-720.86,529.4H3600Z" transform="translate(0)"/><path class="cls-5" d="M0,976.62C95.44,1064.71,183.32,1073,238.32,1073c284,0,473-393,876-393,353,0,446,261.5,471.5,305s124.5,318.37,192,378.18,306.78,219.53,412.5,434.82c27.1,55.2,51,155,51,202H0Z" transform="translate(0)"/><path class="cls-6" d="M1176.4,1514.44l200.68,80.6,248.41-618.55-169.63-68.12A33.46,33.46,0,0,0,1412.34,927Z" transform="translate(0)"/><rect class="cls-7" x="1197.68" y="981.03" width="390.23" height="548.67" transform="translate(2545.07 2734.57) rotate(-169.95)"/><rect class="cls-8" x="1343.93" y="1038.87" width="174.26" height="3.91" transform="translate(2658.48 2315.47) rotate(-169.95)"/><rect class="cls-8" x="1309.06" y="1029.1" width="247.48" height="3.91" transform="translate(2663.62 2296.38) rotate(-169.95)"/><rect class="cls-8" x="1273.77" y="1079.32" width="300.25" height="3.91" transform="translate(2637.18 2394.5) rotate(-169.95)"/><rect class="cls-8" x="1270.48" y="1097.84" width="300.25" height="3.91" transform="translate(2627.43 2430.69) rotate(-169.95)"/><rect class="cls-8" x="1263.92" y="1134.9" width="300.25" height="3.91" transform="translate(2607.93 2503.08) rotate(-169.95)"/><rect class="cls-8" x="1260.63" y="1153.43" width="300.25" height="3.91" transform="translate(2598.18 2539.28) rotate(-169.95)"/><rect class="cls-8" x="1257.35" y="1171.96" width="300.25" height="3.91" transform="translate(2588.42 2575.48) rotate(-169.95)"/><rect class="cls-8" x="1242.9" y="1253.45" width="300.25" height="3.91" transform="translate(2545.53 2734.69) rotate(-169.95)"/><rect class="cls-8" x="1239.49" y="1272.66" width="300.25" height="3.91" transform="translate(2535.41 2772.23) rotate(-169.95)"/><rect class="cls-8" x="1236.09" y="1291.87" width="300.25" height="3.91" transform="translate(2525.3 2809.76) rotate(-169.95)"/><rect class="cls-8" x="1232.68" y="1311.08" width="300.25" height="3.91" transform="translate(2515.18 2847.3) rotate(-169.95)"/><rect class="cls-8" x="1229.28" y="1330.3" width="300.25" height="3.91" transform="translate(2505.07 2884.83) rotate(-169.95)"/><rect class="cls-8" x="1225.87" y="1349.51" width="300.25" height="3.91" transform="translate(2494.96 2922.37) rotate(-169.95)"/><rect class="cls-8" x="1222.46" y="1368.72" width="300.25" height="3.91" transform="translate(2484.84 2959.91) rotate(-169.95)"/><rect class="cls-9" x="1227.69" y="978.31" width="390.23" height="548.67" transform="translate(2479.96 2826.16) rotate(-165.26)"/><rect class="cls-8" x="1391.37" y="1040" width="174.26" height="3.91" transform="translate(2643.12 2425.9) rotate(-165.26)"/><rect class="cls-8" x="1357.28" y="1030.41" width="247.48" height="3.91" transform="translate(2650.53 2407.67) rotate(-165.26)"/><rect class="cls-8" x="1317.92" y="1079.73" width="300.25" height="3.91" transform="matrix(-0.97, -0.25, 0.25, -0.97, 2612.45, 2501.38)"/><rect class="cls-8" x="1313.13" y="1097.93" width="300.25" height="3.91" transform="translate(2598.39 2535.96) rotate(-165.26)"/><rect class="cls-8" x="1303.55" y="1134.32" width="300.25" height="3.91" transform="translate(2570.3 2605.11) rotate(-165.26)"/><rect class="cls-8" x="1298.76" y="1152.52" width="300.25" height="3.91" transform="translate(2556.24 2639.68) rotate(-165.26)"/><rect class="cls-8" x="1293.97" y="1170.72" width="300.25" height="3.91" transform="translate(2542.19 2674.26) rotate(-165.26)"/><rect class="cls-8" x="1272.91" y="1250.75" width="300.25" height="3.91" transform="matrix(-0.97, -0.25, 0.25, -0.97, 2480.38, 2826.34)"/><rect class="cls-8" x="1267.94" y="1269.62" width="300.25" height="3.91" transform="translate(2465.81 2862.19) rotate(-165.26)"/><rect class="cls-8" x="1262.98" y="1288.49" width="300.25" height="3.91" transform="matrix(-0.97, -0.25, 0.25, -0.97, 2451.25, 2898.05)"/><rect class="cls-8" x="1258.01" y="1307.36" width="300.25" height="3.91" transform="translate(2436.67 2933.9) rotate(-165.26)"/><rect class="cls-8" x="1253.05" y="1326.23" width="300.25" height="3.91" transform="translate(2422.11 2969.75) rotate(-165.26)"/><rect class="cls-8" x="1248.08" y="1345.1" width="300.25" height="3.91" transform="translate(2407.52 3005.61) rotate(-165.26)"/><rect class="cls-8" x="1243.11" y="1363.97" width="300.25" height="3.91" transform="translate(2392.96 3041.46) rotate(-165.26)"/><path class="cls-10" d="M1252.54,1545l404,162.26,235.64-586.74L1552.7,911.11a36.15,36.15,0,0,0-52.52,17.29Z" transform="translate(0)"/><path class="cls-11" d="M1738.8,1483.45,1812,1462c12.89-53.26,20.63-98.63,20.63-98.63-88.32,3.56-156.29,30.59-208.57,69l-10.82,87-23.35-58.33C1466.46,1578.76,1452,1760.46,1452,1760.46s248.43-97.2,295.77-137.25c18.29-15.47,35.1-57.73,48.85-103.79C1771.92,1506.11,1738.8,1483.45,1738.8,1483.45Z" transform="translate(0)"/><path class="cls-3" d="M1832.63,1363.37s-290.72,228-380.61,397.09c0,0,248.43-97.2,295.77-137.25,18.29-15.47,35.1-57.73,48.85-103.79-24.72-13.31-57.84-36-57.84-36L1812,1462C1824.89,1408.74,1832.63,1363.37,1832.63,1363.37Z" transform="translate(0)"/><path class="cls-11" d="M1882.54,1587.18c-51.59-14.84-100.16-17.06-144.92-11-8.35,19.2-18.83,42-18.83,42l-11.73-36.44c-167.76,37.75-274.71,186.3-274.71,186.3,112.51,34.25,198.93,28.55,264.51,4.82.45-14,.81-34.79.81-34.79l19.95,26.4a299.58,299.58,0,0,0,77.54-50.55c-10.48-13.66-21.89-29.42-21.89-29.42l41.26,10.52C1864.37,1642,1882.54,1587.18,1882.54,1587.18Z" transform="translate(0)"/><path class="cls-3" d="M1696.86,1772.81c.45-14,.81-34.79.81-34.79l19.95,26.4a299.58,299.58,0,0,0,77.54-50.55c-10.48-13.66-21.89-29.42-21.89-29.42l41.26,10.52c49.84-53,68-107.79,68-107.79C1683.39,1617.65,1432.35,1768,1432.35,1768,1544.86,1802.24,1631.28,1796.54,1696.86,1772.81Z" transform="translate(0)"/><path class="cls-3" d="M613.3,1142.2H585.67a28.89,28.89,0,0,1,16.33-4.94h692.12c36.21,0,65.57,26,65.57,58.12v36.92c0,32.1-29.36,58.12-65.57,58.12l-684.38-.2Z" transform="translate(0)"/><path class="cls-12" d="M1301.63,1232.3v-36.92c0-32.09-29.36-58.12-65.57-58.12h14.87c36.21,0,65.56,26,65.56,58.12v36.92c0,32.1-29.35,58.12-65.56,58.12h-14.67C1272.38,1290.32,1301.63,1264.34,1301.63,1232.3Z" transform="translate(0)"/><path class="cls-12" d="M1139.53,1232.3v-36.92c0-32.09-29.35-58.12-65.56-58.12h14.86c36.21,0,65.57,26,65.57,58.12v36.92c0,32.1-29.36,58.12-65.57,58.12h-14.67C1110.28,1290.32,1139.53,1264.34,1139.53,1232.3Z" transform="translate(0)"/><path class="cls-11" d="M1006.23,1137.4c34.63,0,62.7,24.88,62.7,55.58v41.72c0,30.7-28.07,55.58-62.7,55.58H575.37V1281h1.78l109.53-9.19,22.14-77s-42.73-42.55-45.52-43.65-86.15-4.42-86.15-4.42l-1.78,0v-9.28Z" transform="translate(0)"/><path class="cls-9" d="M603.31,1213.57c0-45-26.24-66.84-26.24-66.84H997.41c31.8,0,57.59,22.86,57.59,51.06v32.11c0,28.19-25.79,51-57.59,51H577.07S603.31,1270.25,603.31,1213.57Z" transform="translate(0)"/><path class="cls-13" d="M1055,1197.79v32.11a45.61,45.61,0,0,1-1.68,12.24c-14.18-30.74-41.35-60.36-93.07-69.88-120.76-22.23-383.18-25.53-383.18-25.53H997.41C1029.21,1146.73,1055,1169.59,1055,1197.79Z" transform="translate(0)"/><path class="cls-14" d="M624.69,1448.33H593.42a30.54,30.54,0,0,1,18.48-6.18h783.35c41,0,74.21,32.57,74.21,72.75v46.21c0,40.18-33.22,72.75-74.21,72.75l-774.59-.26Z" transform="translate(0)"/><path class="cls-8" d="M1069.42,1442.32c39.19,0,71,31.15,71,69.57v52.22c0,38.43-31.78,69.58-71,69.58H581.76V1622h2l124-11.51,25.06-96.37s-48.36-53.26-51.52-54.63-97.51-5.54-97.51-5.54l-2,0v-11.62Z" transform="translate(0)"/><path class="cls-9" d="M613.39,1537.66c0-56.34-29.7-83.66-29.7-83.66h475.74c36,0,65.19,28.61,65.19,63.91v40.19c0,35.29-29.19,63.91-65.19,63.91H583.69S613.39,1608.61,613.39,1537.66Z" transform="translate(0)"/><path class="cls-13" d="M1124.62,1517.91v40.19a63,63,0,0,1-1.9,15.33c-16-38.49-46.8-75.56-105.34-87.48-136.68-27.83-433.69-32-433.69-32h475.74C1095.43,1454,1124.62,1482.61,1124.62,1517.91Z" transform="translate(0)"/><path class="cls-15" d="M1495.28,1294.94h31.28a36,36,0,0,0-18.48-4.91H724.42c-41,0-74.24,25.85-74.24,57.73v36.66c0,31.88,33.24,57.73,74.24,57.73l774.89-.2Z" transform="translate(0)"/><path class="cls-16" d="M1050.38,1290.17c-39.21,0-71,24.71-71,55.2v41.44c0,30.49,31.78,55.2,71,55.2h487.85v-9.27h-2l-124-9.13-25.07-76.47s48.39-42.25,51.54-43.34,97.55-4.4,97.55-4.4h2v-9.22Z" transform="translate(0)"/><path class="cls-9" d="M1506.59,1365.82c0-44.71,29.71-66.38,29.71-66.38H1060.37c-36,0-65.21,22.7-65.21,50.7V1382c0,28,29.2,50.7,65.21,50.7H1536.3S1506.59,1422.11,1506.59,1365.82Z" transform="translate(0)"/><path class="cls-13" d="M995.16,1350.14V1382a40.31,40.31,0,0,0,1.9,12.16c16.06-30.54,46.82-60,105.38-69.41,136.73-22.08,433.86-25.35,433.86-25.35H1060.37C1024.36,1299.44,995.16,1322.14,995.16,1350.14Z" transform="translate(0)"/><path class="cls-17" d="M793.74,1384.42v-36.66c0-31.88,33.24-57.73,74.24-57.73H793.57c-41,0-74.24,25.85-74.24,57.73v36.66c0,31.88,33.24,57.73,74.24,57.73l73.43,0C826.45,1441.72,793.74,1416.05,793.74,1384.42Z" transform="translate(0)"/><path class="cls-10" d="M1546.9,1639.73h39.22a49.5,49.5,0,0,0-23.18-5.48H580.49c-51.4,0-93.07,28.88-93.07,64.5v41c0,35.62,41.67,64.5,93.07,64.5L1552,1804Z" transform="translate(0)"/><path class="cls-6" d="M989.14,1634.4c-49.15,0-89,27.62-89,61.68v46.3c0,34.06,39.85,61.68,89,61.68h611.6V1793.7h-2.53l-155.48-10.2-31.42-85.44s60.65-47.21,64.61-48.43,122.29-4.91,122.29-4.91l2.53,0v-10.3Z" transform="translate(0)"/><path class="cls-9" d="M1561.08,1718.92c0-50,37.24-74.16,37.24-74.16H1001.67c-45.15,0-81.75,25.36-81.75,56.65v35.64c0,31.29,36.6,56.65,81.75,56.65h596.65S1561.08,1781.82,1561.08,1718.92Z" transform="translate(0)"/><path class="cls-13" d="M919.92,1701.41v35.64a40.41,40.41,0,0,0,2.38,13.59c20.12-34.12,58.69-67,132.11-77.56,171.42-24.67,543.91-28.32,543.91-28.32H1001.67C956.52,1644.76,919.92,1670.12,919.92,1701.41Z" transform="translate(0)"/><rect class="cls-18" x="371.84" y="1803.04" width="1440.03" height="18.75" rx="7.62" transform="translate(2183.72 3624.83) rotate(180)"/><polygon class="cls-6" points="1820.61 1185.32 1545.55 1027.99 1508.37 1101.64 1789.82 1250.54 1820.61 1185.32"/><path class="cls-19" d="M1583.86,570.94s2.17,21.39,19.06,22.87c-16.89,1.48-19.06,22.88-19.06,22.88s-2.17-21.4-19-22.88C1581.69,592.33,1583.86,570.94,1583.86,570.94Z" transform="translate(0)"/><path class="cls-11" d="M1892.19,1240.31s3.25,32.09,28.58,34.31c-25.33,2.21-28.58,34.3-28.58,34.3s-3.25-32.09-28.58-34.3C1888.94,1272.4,1892.19,1240.31,1892.19,1240.31Z" transform="translate(0)"/><path class="cls-10" d="M1703.41,394.7s2.89,28.5,25.38,30.47c-22.49,2-25.38,30.47-25.38,30.47s-2.89-28.5-25.38-30.47C1700.52,423.2,1703.41,394.7,1703.41,394.7Z" transform="translate(0)"/><path class="cls-10" d="M474.35,1366.66s1.94,19.17,17.08,20.5c-15.14,1.32-17.08,20.5-17.08,20.5s-1.94-19.18-17.08-20.5C472.41,1385.83,474.35,1366.66,474.35,1366.66Z" transform="translate(0)"/><path class="cls-11" d="M1711.75,827.7s1.94,19.13,17,20.46c-15.1,1.32-17,20.46-17,20.46s-1.94-19.14-17-20.46C1709.81,846.83,1711.75,827.7,1711.75,827.7Z" transform="translate(0)"/><path class="cls-11" d="M1389.63,308s1.94,19.13,17,20.46c-15.1,1.32-17,20.45-17,20.45s-1.94-19.13-17-20.45C1387.69,327.1,1389.63,308,1389.63,308Z" transform="translate(0)"/><path class="cls-11" d="M657.39,569s2.54,25,22.29,26.77c-19.75,1.73-22.29,26.77-22.29,26.77s-2.54-25-22.3-26.77C654.85,594.07,657.39,569,657.39,569Z" transform="translate(0)"/><path class="cls-11" d="M487.42,1002.74s3.72,36.68,32.67,39.22c-29,2.54-32.67,39.22-32.67,39.22s-3.72-36.68-32.67-39.22C483.7,1039.42,487.42,1002.74,487.42,1002.74Z" transform="translate(0)"/><path class="cls-11" d="M1372.59,669.46s2.89,28.49,25.37,30.46c-22.48,2-25.37,30.47-25.37,30.47s-2.89-28.5-25.38-30.47C1369.7,698,1372.59,669.46,1372.59,669.46Z" transform="translate(0)"/><path class="cls-19" d="M1917.57,977.06s2.89,28.5,25.37,30.47c-22.48,2-25.37,30.47-25.37,30.47s-2.89-28.5-25.38-30.47C1914.68,1005.56,1917.57,977.06,1917.57,977.06Z" transform="translate(0)"/><path class="cls-19" d="M505.5,392.36s2.06,20.3,18.08,21.71c-16,1.4-18.08,21.7-18.08,21.7s-2.06-20.3-18.08-21.7C503.44,412.66,505.5,392.36,505.5,392.36Z" transform="translate(0)"/><path class="cls-19" d="M719.33,894.14s3.3,32.5,28.95,34.75c-25.65,2.25-28.95,34.76-28.95,34.76s-3.3-32.51-29-34.76C716,926.64,719.33,894.14,719.33,894.14Z" transform="translate(0)"/><path class="cls-10" d="M434.73,682.47S437,708.26,454.5,710c-17.52,1.79-19.77,27.58-19.77,27.58S432.47,711.83,415,710C432.47,708.26,434.73,682.47,434.73,682.47Z" transform="translate(0)"/><path class="cls-10" d="M1221.93,397.52s2.26,25.86,19.83,27.65c-17.57,1.79-19.83,27.65-19.83,27.65s-2.25-25.86-19.82-27.65C1219.68,423.38,1221.93,397.52,1221.93,397.52Z" transform="translate(0)"/><polygon class="cls-20" points="995.16 533.18 994.59 574.52 950.9 582.44 952.35 524.09 995.16 533.18"/><path class="cls-21" d="M951.68,551l.67-26.86,42.81,13.72-.23,12.45C985.29,553.87,969.05,556.06,951.68,551Z" transform="translate(0)"/><path d="M1030.65,389s-33.59-19.15-70.48-15.42c-56.77,5.73-63.77,61.65-84.41,62.55,0,0,4.72,5.24,20.54,3.15,0,0-9.37,15.26-7.74,24.95,0,0,11.6-14.32,16.75-16.66,0,0-12,50.9,24.4,67.68,21.63,10,66.69-66.81,66.69-66.81Z" transform="translate(0)"/><path d="M1007.68,503.88s2.51,31.37,21.8,35.88a32.78,32.78,0,0,1-4.46-20.89s14.51,20.24,30.57,7.6c0,0-27.32-14.52-19.14-34.86s-30.73,4.58-30.73,4.58Z" transform="translate(0)"/><path class="cls-22" d="M922.76,468.07c2.47,7.75-.57,15.63-6.78,17.6s-13.24-2.71-15.71-10.46.57-15.63,6.78-17.6S920.29,460.32,922.76,468.07Z" transform="translate(0)"/><path class="cls-20" d="M921.42,512.15a61.14,61.14,0,0,1-3.9-10.64,116.32,116.32,0,0,1-4-29.35c0-1.93-.18-3.86-.37-5.78a63,63,0,1,1,125.53-1c4.1-1.87,8.55-2,12.3,0,7.19,3.91,9,14.36,4.14,23.33s-14.7,13.08-21.89,9.17a12.34,12.34,0,0,1-2.67-2c-5.57,30.45-32.65,52.17-62.83,49.28a56.55,56.55,0,0,1-37-18.91c-.62-.62-1.28-1.33-2-2.16A54.78,54.78,0,0,1,921.42,512.15Z" transform="translate(0)"/><path class="cls-23" d="M981.87,466.37a5.5,5.5,0,1,0,6-4.95A5.49,5.49,0,0,0,981.87,466.37Z" transform="translate(0)"/><path class="cls-23" d="M934.56,465a5.5,5.5,0,1,0,6-4.94A5.5,5.5,0,0,0,934.56,465Z" transform="translate(0)"/><path d="M976.3,454.9a51.65,51.65,0,0,1,8.06-1.85,27.21,27.21,0,0,1,7.7,0,25.41,25.41,0,0,1,7.33,2.19l.92.39c.31.13.58.33.88.48l1.8,1c1.21.67,2.32,1.5,3.66,2.17a23.94,23.94,0,0,0-2.39-3.66,20.41,20.41,0,0,0-3.26-3,17.92,17.92,0,0,0-8.39-3.44,18.68,18.68,0,0,0-9,.92A17.33,17.33,0,0,0,976.3,454.9Z" transform="translate(0)"/><path d="M954.17,453.91a17.31,17.31,0,0,0-6.84-5.49,18.57,18.57,0,0,0-8.89-1.72,18,18,0,0,0-8.66,2.69,20.39,20.39,0,0,0-3.52,2.72,24.69,24.69,0,0,0-2.71,3.44c1.39-.55,2.58-1.28,3.84-1.84l1.88-.8c.31-.12.6-.29.92-.4l.95-.3a25,25,0,0,1,7.5-1.53,27.14,27.14,0,0,1,7.67.68A52,52,0,0,1,954.17,453.91Z" transform="translate(0)"/><path class="cls-2" d="M951.65,503.24c2.46,8.1,10.71,13.61,19.89,12.71s16.21-7.89,17.06-16.32Z" transform="translate(0)"/><path class="cls-22" d="M965.11,460a81,81,0,0,0-5,10.1,76.41,76.41,0,0,0-3.66,10.68,28.09,28.09,0,0,0-.88,5.72,9.31,9.31,0,0,0,.11,1.56c0,.27.13.56.2.84a3.78,3.78,0,0,0,.46.89,5.3,5.3,0,0,0,.38.43l.31.25c.21.15.41.32.62.46.44.26.86.55,1.31.77a28.28,28.28,0,0,0,5.47,2.16,39.47,39.47,0,0,0,5.69,1.22,65.13,65.13,0,0,1-10.18-4.9c-.39-.24-.73-.52-1.08-.78l-.49-.42-.24-.21a.41.41,0,0,0-.07-.11,4.22,4.22,0,0,1-.25-2.1,30.22,30.22,0,0,1,.94-5.25c.87-3.55,2-7.08,3.1-10.62S964.09,463.6,965.11,460Z" transform="translate(0)"/><path d="M1038.69,465.38c9-4.93,16.38,3.62,16.38,3.62,3.21-7.67,14.94-40.9-11.54-63.85l17.81-7.64s-10-5.09-20.36-2.76c0,0,3.29-8.58,2.55-17.39,0,0-7.64,10.4-12.09,12.2l-83.14.95s5.73,35.63,28.63,48.78c0,0-9.33-21.62-6.78-34.14,0,0,4.45,33.08,37.75,41.56l18.45,36.91,4.34-2C1031.74,475.28,1034,468,1038.69,465.38Z" transform="translate(0)"/><path class="cls-20" d="M774.32,531.13s6.43,86,47,106,115.77-30,115.77-30l-73.8-14.37s-35.2,7.79-39.26,7.11-27.42-51.79-27.42-51.79Z" transform="translate(0)"/><polygon class="cls-3" points="940.75 567.88 863.34 576.83 874.85 643.86 912.76 631.33 940.75 567.88"/><path class="cls-24" d="M889.07,759.29s-25.05,223.41-21,301.26l44.25,5.28,46.08-258.48,5.83.23,29.68,260h40.17s6.63-259.52-15-332.64S889.07,759.29,889.07,759.29Z" transform="translate(0)"/><path class="cls-11" d="M1035.18,596.09a32.56,32.56,0,0,0-23.38-23.94,67.55,67.55,0,0,0-14.41-2.09L995,570h0c-28.85,9.22-42.76-2.57-42.77-2.58-10.72-1.8-41.44,0-53.63,75.45C883.65,734.91,883,765.38,883,765.38s86,41.3,145.55,8.8C1028.53,774.18,1048.27,650.41,1035.18,596.09Z" transform="translate(0)"/><path class="cls-20" d="M904.64,1077.21l-.91,32.35-21.48,15.58s-10.16-13.68-10-15.58,2-40.86,2-40.86Z" transform="translate(0)"/><path class="cls-20" d="M1001.39,1077.21l.91,32.35,21.49,15.58s10.15-13.68,10-15.58-2-40.86-2-40.86Z" transform="translate(0)"/><path class="cls-10" d="M866.81,1057.65l46.55,5.55a2.23,2.23,0,0,1,1.93,2.63l-3.15,16.41a2.23,2.23,0,0,1-2.5,1.79l-43.6-6a2.24,2.24,0,0,1-1.92-2.24l.2-15.93A2.22,2.22,0,0,1,866.81,1057.65Z" transform="translate(0)"/><path class="cls-10" d="M1038,1058.89l-46.55,5.55a2.23,2.23,0,0,0-1.93,2.63l3.15,16.42a2.22,2.22,0,0,0,2.49,1.78l43.6-6a2.24,2.24,0,0,0,1.93-2.24l-.2-15.93A2.23,2.23,0,0,0,1038,1058.89Z" transform="translate(0)"/><polygon class="cls-25" points="1190.06 765.49 1239.84 762.01 1190.06 758.53 1190.06 765.49"/><path class="cls-26" d="M1230.38,762a5,5,0,1,0,5-5A5,5,0,0,0,1230.38,762Z" transform="translate(0)"/><path class="cls-27" d="M1208.32,747.52h1.44a0,0,0,0,1,0,0v28.19a0,0,0,0,1,0,0h-1.44a12.65,12.65,0,0,1-12.65-12.65v-2.88A12.65,12.65,0,0,1,1208.32,747.52Z" transform="translate(2405.42 1523.23) rotate(180)"/><polygon class="cls-27" points="1041.6 765.49 991.82 762.01 1041.6 758.53 1041.6 765.49"/><circle class="cls-26" cx="996.31" cy="762.01" r="4.97"/><path class="cls-27" d="M1034.56,747.52H1036a0,0,0,0,1,0,0v28.19a0,0,0,0,1,0,0h-1.44a12.66,12.66,0,0,1-12.66-12.66v-2.88A12.66,12.66,0,0,1,1034.56,747.52Z"/><polygon class="cls-27" points="1190.06 765.49 1239.84 762.01 1190.06 758.53 1190.06 765.49"/><path class="cls-26" d="M1230.38,762a5,5,0,1,0,5-5A5,5,0,0,0,1230.38,762Z" transform="translate(0)"/><path class="cls-27" d="M1208.32,747.52h1.44a0,0,0,0,1,0,0v28.19a0,0,0,0,1,0,0h-1.44a12.65,12.65,0,0,1-12.65-12.65v-2.88A12.65,12.65,0,0,1,1208.32,747.52Z" transform="translate(2405.42 1523.23) rotate(180)"/><path class="cls-27" d="M1187.59,897.45,1184.84,881A100,100,0,0,0,1268,791.16l1.49-16.82,16.63,1.48-1.5,16.81A116.71,116.71,0,0,1,1187.59,897.45Z" transform="translate(0)"/><path class="cls-26" d="M1297.46,763.08a15.69,15.69,0,0,0-5.07-11.32V736.5a3.46,3.46,0,0,0-6.92,0v10.9a24.61,24.61,0,0,0-17.64,0V736.5a3.46,3.46,0,0,0-3.46-3.46h0a3.45,3.45,0,0,0-3.46,3.46v15.34a15.63,15.63,0,0,0-5,11.24,16.07,16.07,0,0,0,6.62,12.65,5.14,5.14,0,0,0-1.63,3.77h0a5.17,5.17,0,0,0,5.17,5.18h21.13a5.18,5.18,0,0,0,5.18-5.18h0a5.15,5.15,0,0,0-1.59-3.73A16.12,16.12,0,0,0,1297.46,763.08Z" transform="translate(0)"/><path class="cls-27" d="M1048.87,897.45l2.75-16.46a100,100,0,0,1-83.18-89.83L967,774.34l-16.63,1.48,1.49,16.81A116.73,116.73,0,0,0,1048.87,897.45Z" transform="translate(0)"/><path class="cls-26" d="M939,763.08a15.66,15.66,0,0,1,5.07-11.32V736.5a3.46,3.46,0,0,1,6.92,0v10.9a24.61,24.61,0,0,1,17.64,0V736.5a3.46,3.46,0,0,1,3.46-3.46h0a3.46,3.46,0,0,1,3.46,3.46v15.34a15.63,15.63,0,0,1,5,11.24,16.07,16.07,0,0,1-6.62,12.65,5.18,5.18,0,0,1,1.63,3.77h0a5.18,5.18,0,0,1-5.18,5.18H949.25a5.18,5.18,0,0,1-5.18-5.18h0a5.15,5.15,0,0,1,1.59-3.73A16.12,16.12,0,0,1,939,763.08Z" transform="translate(0)"/><rect class="cls-27" x="1138.61" y="1028.23" width="18.65" height="104.34"/><path class="cls-26" d="M1147.13,1108.47a28.87,28.87,0,0,0-26.61,17.67,8.1,8.1,0,0,0,7.51,11.19h38.2a8.1,8.1,0,0,0,7.51-11.19A28.87,28.87,0,0,0,1147.13,1108.47Z" transform="translate(0)"/><path class="cls-26" d="M1162.77,1068.86a14.84,14.84,0,1,1-14.84-14.84A14.84,14.84,0,0,1,1162.77,1068.86Z" transform="translate(0)"/><rect class="cls-27" x="1069.73" y="1028.23" width="18.65" height="104.34"/><path class="cls-27" d="M1151.17,828.44a3.55,3.55,0,1,1,0-7.09,3.54,3.54,0,0,0-3.55-3.54H1083.5a7.91,7.91,0,0,1-3.55,10.63,3.55,3.55,0,1,1,0,7.09h0a3.54,3.54,0,0,0,3.55,3.54h64.12a3.54,3.54,0,0,0,3.55-3.54h0a3.55,3.55,0,1,1,0-7.09Z" transform="translate(0)"/><polygon class="cls-27" points="1068.47 721.42 1074.95 628.59 1081.44 721.42 1068.47 721.42"/><polygon class="cls-27" points="1150.23 721.42 1156.71 628.59 1163.2 721.42 1150.23 721.42"/><path class="cls-27" d="M1078.66,696.07h73.79a22,22,0,0,1,22,22V730.2a0,0,0,0,1,0,0H1056.62a0,0,0,0,1,0,0V718.11A22,22,0,0,1,1078.66,696.07Z"/><path class="cls-27" d="M1033.25,854h2.69a0,0,0,0,1,0,0v52.55a0,0,0,0,1,0,0h-2.69A23.59,23.59,0,0,1,1009.66,883V877.6A23.59,23.59,0,0,1,1033.25,854Z"/><path class="cls-27" d="M1219.25,854h2.69a0,0,0,0,1,0,0v52.55a0,0,0,0,1,0,0h-2.69A23.59,23.59,0,0,1,1195.66,883V877.6A23.59,23.59,0,0,1,1219.25,854Z" transform="translate(2417.6 1760.58) rotate(-180)"/><rect class="cls-26" x="1035.93" y="707.28" width="159.73" height="112.75" rx="22.11"/><path class="cls-25" d="M1078.62,751.31a14.93,14.93,0,1,1-14.92-14.92A14.93,14.93,0,0,1,1078.62,751.31Z" transform="translate(0)"/><path class="cls-25" d="M1182.82,751.31a14.93,14.93,0,1,1-14.92-14.92A14.93,14.93,0,0,1,1182.82,751.31Z" transform="translate(0)"/><path class="cls-25" d="M1115.8,788.92c-16.09,0-24.2-7.91-28.16-14.55a32.68,32.68,0,0,1-3.19-7.16,5.85,5.85,0,0,1,5.32-7.58h0a5.89,5.89,0,0,1,5.87,4.14,21.14,21.14,0,0,0,2.24,4.93c3.54,5.66,9.57,8.53,17.92,8.53s14.38-2.87,17.92-8.53a21.14,21.14,0,0,0,2.24-4.93,5.88,5.88,0,0,1,5.86-4.14h0a5.85,5.85,0,0,1,5.31,7.58,33.09,33.09,0,0,1-3.18,7.16C1140,781,1131.88,788.92,1115.8,788.92Z" transform="translate(0)"/><path class="cls-27" d="M1115.8,784.45c-7.52,0-13.76-1.93-18.55-5.72a25,25,0,0,1-7.4-9.83,1.36,1.36,0,0,1,.77-1.83h0a1.37,1.37,0,0,1,1.75.73c2.86,6.61,9.24,13.9,23.43,13.9s20.56-7.29,23.43-13.9a1.37,1.37,0,0,1,1.74-.73h0a1.37,1.37,0,0,1,.78,1.83,25.15,25.15,0,0,1-7.41,9.83C1129.55,782.52,1123.31,784.45,1115.8,784.45Z" transform="translate(0)"/><path class="cls-27" d="M1074.4,751.31a10.7,10.7,0,1,1-10.7-10.7A10.7,10.7,0,0,1,1074.4,751.31Z" transform="translate(0)"/><path class="cls-27" d="M1178.59,751.31a10.7,10.7,0,1,1-10.69-10.7A10.7,10.7,0,0,1,1178.59,751.31Z" transform="translate(0)"/><path class="cls-28" d="M1173.76,744.14c2.3,2,2.87,5.07,1.27,6.94s-4.76,1.79-7.06-.18-2.86-5.07-1.26-6.94S1171.47,742.17,1173.76,744.14Z" transform="translate(0)"/><path class="cls-28" d="M1070,744.14c2.29,2,2.86,5.07,1.26,6.94s-4.75,1.79-7-.18-2.87-5.07-1.27-6.94S1067.7,742.17,1070,744.14Z" transform="translate(0)"/><path class="cls-29" d="M1176.87,807.69H1054.72a18.8,18.8,0,0,1-18.79-18.8v12.35A18.79,18.79,0,0,0,1054.72,820h122.15a18.79,18.79,0,0,0,18.79-18.79V788.89A18.8,18.8,0,0,1,1176.87,807.69Z" transform="translate(0)"/><rect class="cls-26" x="1035.93" y="835.86" width="159.73" height="195.87" rx="19.2"/><path class="cls-29" d="M1176.87,1019.38H1054.72a18.8,18.8,0,0,1-18.79-18.8v12.35a18.79,18.79,0,0,0,18.79,18.79h122.15a18.79,18.79,0,0,0,18.79-18.79v-12.35A18.8,18.8,0,0,1,1176.87,1019.38Z" transform="translate(0)"/><rect class="cls-30" x="1048.77" y="864.14" width="69.99" height="107.81" rx="16.61"/><rect class="cls-30" x="1126.66" y="864.14" width="60.1" height="107.81" rx="16.61"/><rect class="cls-27" x="1105.16" y="877.94" width="5.93" height="80.21" rx="2.66"/><path class="cls-27" d="M1156.71,873.77c-13.86,0-25.1,11.56-25.1,25.82h50.21C1181.82,885.33,1170.58,873.77,1156.71,873.77Z" transform="translate(0)"/><path class="cls-25" d="M1156.71,877.4c-10.59,0-19.18,8.26-19.18,18.46h38.37C1175.9,885.66,1167.31,877.4,1156.71,877.4Z" transform="translate(0)"/><path class="cls-27" d="M1141.64,923a4.08,4.08,0,1,1-4.08-4.08A4.08,4.08,0,0,1,1141.64,923Z" transform="translate(0)"/><path class="cls-27" d="M1181.53,923a4.08,4.08,0,1,1-4.08-4.08A4.08,4.08,0,0,1,1181.53,923Z" transform="translate(0)"/><path class="cls-27" d="M1141.64,961.51a4.08,4.08,0,1,1-4.08-4.08A4.08,4.08,0,0,1,1141.64,961.51Z" transform="translate(0)"/><path class="cls-27" d="M1181.53,961.51a4.08,4.08,0,1,1-4.08-4.08A4.08,4.08,0,0,1,1181.53,961.51Z" transform="translate(0)"/><rect class="cls-27" x="1049.78" y="986.45" width="136.98" height="7.2" rx="3.23"/><rect class="cls-27" x="1049.78" y="1000.58" width="136.98" height="7.2" rx="3.23"/><polygon class="cls-30" points="1155.57 893.53 1162.96 879.99 1158.89 893.89 1155.57 893.53"/><path class="cls-26" d="M1160.41,895.86a1.77,1.77,0,0,0,0-.23,3.71,3.71,0,1,0-7.41,0,1.77,1.77,0,0,0,0,.23Z" transform="translate(0)"/><path class="cls-26" d="M1078.25,1108.47a28.87,28.87,0,0,0-26.61,17.67,8.11,8.11,0,0,0,7.52,11.19h38.19a8.1,8.1,0,0,0,7.51-11.19A28.87,28.87,0,0,0,1078.25,1108.47Z" transform="translate(0)"/><path class="cls-26" d="M1093.89,1068.86a14.84,14.84,0,1,1-14.84-14.84A14.83,14.83,0,0,1,1093.89,1068.86Z" transform="translate(0)"/><path class="cls-26" d="M1082.78,635a7.83,7.83,0,1,1-7.83-7.83A7.83,7.83,0,0,1,1082.78,635Z" transform="translate(0)"/><path class="cls-26" d="M1164.54,635a7.83,7.83,0,1,1-7.83-7.83A7.83,7.83,0,0,1,1164.54,635Z" transform="translate(0)"/><path class="cls-6" d="M902.54,408a11.94,11.94,0,0,0-7.33-6.64l-26-8.29a158.57,158.57,0,0,0,3.89-15.55L813,360.46,752.86,343.4A160.09,160.09,0,0,0,748,358.68l-26.43-6.58a11.94,11.94,0,0,0-14.77,10.3c-1,9.4-1.72,27.85,5.07,45.76a68.2,68.2,0,0,0,16.84,25.61c8,7.55,18,13.2,29.79,16.85,6,6.44,14,11.76,24.55,15.33,10.82,2.48,20.43,2.16,29-.15,12,3.11,23.48,3.56,34.23,1.32a68.08,68.08,0,0,0,27.78-13c15.2-11.67,24.29-27.74,28.35-36.28A11.92,11.92,0,0,0,902.54,408ZM718.1,363.63a.56.56,0,0,1,.25-.42.52.52,0,0,1,.47-.08l26.54,6.6c-3.85,18.49-6.14,43.47,2.37,64C716.44,415.87,716.33,379.89,718.1,363.63ZM892.1,413c-7,14.77-26,45.35-62.07,44.08,18-13,29.2-35.46,35.63-53.21l26.09,8.32a.57.57,0,0,1,.36.32A.58.58,0,0,1,892.1,413Z" transform="translate(0)"/><polygon class="cls-6" points="771.35 564.42 790.21 457.08 782.98 466.19 783.05 465.95 781.69 454.4 741.36 555.66 771.35 564.42"/><path class="cls-6" d="M793.39,468.89a10.74,10.74,0,1,1-7.4-13.27A10.75,10.75,0,0,1,793.39,468.89Z" transform="translate(0)"/><path class="cls-6" d="M781.54,514.15,759,507.76a3.92,3.92,0,0,1-2.71-4.84l.25-.86a3.92,3.92,0,0,1,4.84-2.7l22.51,6.39a3.92,3.92,0,0,1,2.71,4.84l-.25.86A3.92,3.92,0,0,1,781.54,514.15Z" transform="translate(0)"/><path class="cls-6" d="M771.82,572.34l-35.08-10a4.57,4.57,0,0,1-3.14-5.64l.28-1a4.57,4.57,0,0,1,5.64-3.15l35.07,10a4.56,4.56,0,0,1,3.15,5.63l-.28,1A4.57,4.57,0,0,1,771.82,572.34Z" transform="translate(0)"/><polygon class="cls-31" points="780.25 513.78 760.29 508.12 758.14 513.54 779.22 519.62 780.25 513.78"/><path class="cls-31" d="M734.59,554a4,4,0,0,0-.54,1.14l-.63,2.22a3.93,3.93,0,0,0,2.71,4.85l36.3,10.3a3.93,3.93,0,0,0,4.85-2.71l.63-2.22a3.85,3.85,0,0,0,.14-1.25Z" transform="translate(0)"/><rect class="cls-6" x="721.72" y="562.54" width="63.93" height="13.85" rx="6.22" transform="translate(184.06 -184.1) rotate(15.84)"/><path class="cls-32" d="M873.11,377.52l-21.86-6.2-.55,1.59C817,364,752.31,346.36,752.31,346.36l93.17,39.9c-12.42,28.3-36.21,60.91-78.29,51.27a59.78,59.78,0,0,1-22.6-13.36c4.54,18,15.59,34,38.46,41.78C854.28,482.27,873.11,377.52,873.11,377.52Z" transform="translate(0)"/><path class="cls-33" d="M871.42,387.64,749,352.91a8.2,8.2,0,0,1-5.64-10.12l.51-1.79A8.2,8.2,0,0,1,754,335.35L876.4,370.09A8.2,8.2,0,0,1,882,380.21l-.51,1.79A8.18,8.18,0,0,1,871.42,387.64Z" transform="translate(0)"/><path class="cls-34" d="M758.79,365.57s-28.28,73.65,31.42,91.51C790.21,457.08,751.77,428.68,758.79,365.57Z" transform="translate(0)"/><polygon class="cls-32" points="807.2 384.46 811.02 405.22 830.29 413.84 811.72 423.89 809.48 444.88 794.18 430.33 773.53 434.68 782.64 415.64 772.12 397.34 793.04 400.12 807.2 384.46"/><polygon class="cls-33" points="806.16 381.05 809.98 401.81 829.24 410.43 810.68 420.48 808.43 441.47 793.14 426.92 772.49 431.27 781.6 412.23 771.08 393.93 792 396.71 806.16 381.05"/><path class="cls-20" d="M959,631.33c-94.79-.9-193.69-104.94-200.2-111.11s-7.79-13.37-6.26-14.47,5.84,1.27,5.84,1.27-2.68-9.28-.68-11.2c2.82-2.71,9.22.79,9.22.79s-1.18-9.14,2.63-10.41,7.7,6,7.7,6c3.21-3.81,5.58-4,5.58-4,6.86.51,5.84,14,5.84,14l4.4-1.1c6.69-1.35,2.09,14.25,2.09,14.25S806,532,864.7,560.47s98.84,21.66,98.84,21.66Z" transform="translate(0)"/><path class="cls-3" d="M953.61,576.27s51.12-2.88,64.68-1.65c18.37,1.65,23.78,25.12,8,40-14.87,14-72.67,25.28-72.67,25.28Z" transform="translate(0)"/><path class="cls-35" d="M1010.85,622.78c-3,1.38-6.1,2.64-9.21,3.79s-6.25,2.25-9.42,3.24c-6.33,2-12.74,3.81-19.21,5.36q-4.85,1.16-9.73,2.15c-3,.61-6,1.21-8.94,1.72l-.06-15c0-5.31-.07-10.61-.13-15.91l-.21-15.91c-.11-5.31-.18-10.61-.33-15.91-.15,5.3-.22,10.6-.33,15.91l-.21,15.91c-.06,5.3-.12,10.6-.13,15.91l-.06,15.91v.85l.84-.13c6.62-1,13.15-2.47,19.63-4.07s12.92-3.42,19.26-5.55q4.75-1.6,9.4-3.47t9.18-4a91.24,91.24,0,0,0,8.78-4.83,63.29,63.29,0,0,0,8.1-5.87A85.73,85.73,0,0,1,1010.85,622.78Z" transform="translate(0)"/><path class="cls-36" d="M828.26,1137.42l82.31.16a2.57,2.57,0,0,0,2.57-2.56v-3.68a2.56,2.56,0,0,0-2.56-2.56l-82.31-.16a2.57,2.57,0,0,0-2.57,2.56v3.67A2.56,2.56,0,0,0,828.26,1137.42Z" transform="translate(0)"/><path class="cls-11" d="M909.2,1102l2.85,24.48c.35,3-1.34,5.75-3.56,5.75l-77-.14a5.64,5.64,0,0,1-5-3.61c-1.07-2.41-1.28-6,2.18-10.91,6.85-9.64,29.12-12,40.34-20.12a1.3,1.3,0,0,1,.78-.25l35.46.06C907.17,1097.3,908.88,1099.31,909.2,1102Z" transform="translate(0)"/><path class="cls-36" d="M874.7,1111.46h0a1.66,1.66,0,0,0,.44-2c-1.5-3.35-6.22-11.53-15.84-9.87a1.38,1.38,0,0,0-.84,1.6v0c.09.74.59,1.22,1.13,1.13,8.62-1.45,12.63,5.75,13.85,8.56C873.7,1111.5,874.24,1111.74,874.7,1111.46Z" transform="translate(0)"/><path class="cls-36" d="M866.69,1114.59h0a1.63,1.63,0,0,0,.44-2c-1.5-3.36-6.22-11.53-15.84-9.87-.56.09-.93.83-.84,1.59v0c.09.73.59,1.22,1.13,1.13,8.63-1.46,12.63,5.75,13.85,8.56C865.69,1114.64,866.23,1114.87,866.69,1114.59Z" transform="translate(0)"/><path class="cls-36" d="M859.24,1117.52h0a1.66,1.66,0,0,0,.45-2c-1.51-3.35-6.22-11.53-15.85-9.87-.55.1-.93.84-.84,1.6v0c.09.74.59,1.22,1.13,1.13,8.63-1.45,12.63,5.75,13.85,8.56C858.24,1117.56,858.78,1117.8,859.24,1117.52Z" transform="translate(0)"/><path class="cls-36" d="M956.56,1137.42l82.31.16a2.57,2.57,0,0,0,2.57-2.56v-3.68a2.56,2.56,0,0,0-2.56-2.56l-82.31-.16a2.57,2.57,0,0,0-2.57,2.56v3.67A2.56,2.56,0,0,0,956.56,1137.42Z" transform="translate(0)"/><path class="cls-11" d="M1037.5,1102l2.85,24.48c.35,3-1.34,5.75-3.56,5.75l-77-.14a5.64,5.64,0,0,1-5-3.61c-1.07-2.41-1.28-6,2.18-10.91,6.85-9.64,29.12-12,40.34-20.12a1.3,1.3,0,0,1,.78-.25l35.46.06C1035.47,1097.3,1037.18,1099.31,1037.5,1102Z" transform="translate(0)"/><path class="cls-36" d="M1003,1111.46h0a1.66,1.66,0,0,0,.44-2c-1.5-3.35-6.22-11.53-15.84-9.87a1.38,1.38,0,0,0-.84,1.6v0c.09.74.59,1.22,1.13,1.13,8.62-1.45,12.63,5.75,13.85,8.56C1002,1111.5,1002.54,1111.74,1003,1111.46Z" transform="translate(0)"/><path class="cls-36" d="M995,1114.59h0a1.65,1.65,0,0,0,.44-2c-1.5-3.36-6.22-11.53-15.84-9.87-.56.09-.93.83-.84,1.59v0c.09.73.59,1.22,1.13,1.13,8.62-1.46,12.63,5.75,13.85,8.56C994,1114.64,994.53,1114.87,995,1114.59Z" transform="translate(0)"/><path class="cls-36" d="M987.54,1117.52h0a1.66,1.66,0,0,0,.45-2c-1.51-3.35-6.22-11.53-15.85-9.87-.55.1-.93.84-.84,1.6v0c.09.74.59,1.22,1.13,1.13,8.63-1.45,12.63,5.75,13.85,8.56C986.54,1117.56,987.08,1117.8,987.54,1117.52Z" transform="translate(0)"/><text class="cls-37" transform="translate(104.68 221.96)"><tspan class="cls-38">J</tspan><tspan class="cls-39" x="103.93" y="0">o</tspan><tspan x="179.5" y="0">h</tspan><tspan class="cls-40" x="252.27" y="0">n</tspan><tspan x="348.33" y="0">s</tspan><tspan class="cls-40" x="427.62" y="0">o</tspan><tspan x="494.18" y="0">n </tspan><tspan class="cls-41" x="676.68" y="0">C</tspan><tspan class="cls-39" x="764.77" y="0">o</tspan><tspan class="cls-42" x="840.34" y="0">o</tspan><tspan class="cls-43" x="891.99" y="0">p</tspan><tspan class="cls-40" x="991.27" y="0">e</tspan><tspan x="1053.48" y="0">r </tspan><tspan class="cls-44" x="1204.2" y="0">T</tspan><tspan class="cls-45" x="1277.18" y="0">e</tspan><tspan class="cls-46" x="1337.94" y="0">ch</tspan><tspan class="cls-47" x="1480.27" y="0">n</tspan><tspan class="cls-41" x="1586.89" y="0">o</tspan><tspan class="cls-48" x="1658.01" y="0">lo</tspan><tspan class="cls-49" x="1755.11" y="0">g</tspan><tspan class="cls-50" x="1829.95" y="0">i</tspan><tspan class="cls-51" x="1880.57" y="0">e</tspan><tspan x="1936.88" y="0">s</tspan></text><text class="cls-52" transform="translate(2135.18 566.47)">L<tspan class="cls-53" x="136.66" y="0">e</tspan><tspan class="cls-48" x="199.17" y="0">a</tspan><tspan class="cls-54" x="269.47" y="0">r</tspan><tspan class="cls-55" x="335.62" y="0">n </tspan><tspan class="cls-56" x="518.98" y="0">P</tspan><tspan x="602.39" y="0">r</tspan><tspan class="cls-48" x="682.06" y="0">o</tspan><tspan class="cls-49" x="744.46" y="0">g</tspan><tspan class="cls-57" x="819.65" y="0">r</tspan><tspan class="cls-58" x="899.32" y="0">a</tspan><tspan class="cls-59" x="966.61" y="0">m</tspan><tspan class="cls-60" x="1091" y="0">m</tspan><tspan class="cls-61" x="1216.95" y="0">i</tspan><tspan class="cls-62" x="1251.27" y="0">n</tspan><tspan x="1346.33" y="0">g</tspan></text><text class="cls-63" transform="translate(2147.75 865.36)">S<tspan class="cls-64" x="58.64" y="0">t</tspan><tspan class="cls-48" x="94.42" y="0">a</tspan><tspan class="cls-65" x="137" y="0">rt y</tspan><tspan class="cls-66" x="315.76" y="0">u</tspan><tspan x="366.84" y="0">r </tspan><tspan class="cls-56" x="458.55" y="0">P</tspan><tspan x="509.07" y="0">r</tspan><tspan class="cls-48" x="557.32" y="0">o</tspan><tspan class="cls-49" x="595.11" y="0">g</tspan><tspan class="cls-65" x="640.65" y="0">r</tspan><tspan class="cls-67" x="688.9" y="0">a</tspan><tspan class="cls-59" x="729.66" y="0">m</tspan><tspan class="cls-66" x="804.99" y="0">m</tspan><tspan class="cls-68" x="881.27" y="0">i</tspan><tspan class="cls-69" x="902.05" y="0">n</tspan><tspan class="cls-65" x="959.63" y="0">g </tspan><tspan class="cls-70" x="1053.16" y="0">J</tspan><tspan class="cls-71" x="1116.4" y="0">o</tspan><tspan class="cls-72" x="1164.21" y="0">u</tspan><tspan class="cls-54" x="1215.3" y="0">r</tspan><tspan x="1255.36" y="0">n</tspan><tspan class="cls-39" x="1322.94" y="0">e</tspan><tspan class="cls-65" x="1366.28" y="0">y </tspan><tspan class="cls-73" x="0" y="154.8">f</tspan><tspan class="cls-74" x="33.32" y="154.8">r</tspan><tspan class="cls-75" x="81.57" y="154.8">o</tspan><tspan x="125.72" y="154.8">m </tspan><tspan class="cls-76" x="251.83" y="154.8">B</tspan><tspan class="cls-77" x="320.42" y="154.8">e</tspan><tspan class="cls-49" x="350.09" y="154.8">g</tspan><tspan class="cls-78" x="395.63" y="154.8">i</tspan><tspan class="cls-59" x="416.42" y="154.8">n</tspan><tspan x="476.7" y="154.8">n</tspan><tspan class="cls-64" x="544.28" y="154.8">e</tspan><tspan x="582.14" y="154.8">r </tspan><tspan class="cls-79" x="673.85" y="154.8">t</tspan><tspan x="709.63" y="154.8">o </tspan><tspan class="cls-56" x="802.72" y="154.8">P</tspan><tspan x="853.24" y="154.8">ro</tspan><tspan class="cls-49" x="951.12" y="154.8">f</tspan><tspan class="cls-51" x="989.92" y="154.8">e</tspan><tspan class="cls-79" x="1024.19" y="154.8">s</tspan><tspan class="cls-80" x="1063.3" y="154.8">s</tspan><tspan class="cls-81" x="1107.02" y="154.8">i</tspan><tspan class="cls-64" x="1135.11" y="154.8">o</tspan><tspan x="1175.61" y="154.8">n</tspan><tspan class="cls-64" x="1243.2" y="154.8">e</tspan><tspan x="1281.06" y="154.8">r </tspan><tspan class="cls-67" x="0" y="309.6">w</tspan><tspan class="cls-54" x="70.04" y="309.6">it</tspan><tspan x="134.86" y="309.6">h </tspan><tspan class="cls-70" x="222.6" y="309.6">J</tspan><tspan class="cls-39" x="285.84" y="309.6">o</tspan><tspan x="331.82" y="309.6">h</tspan><tspan class="cls-64" x="376.1" y="309.6">n</tspan><tspan class="cls-65" x="434.56" y="309.6">s</tspan><tspan class="cls-64" x="482.8" y="309.6">o</tspan><tspan class="cls-65" x="523.31" y="309.6">n </tspan><tspan class="cls-72" x="634.36" y="309.6">C</tspan><tspan class="cls-39" x="687.96" y="309.6">o</tspan><tspan class="cls-82" x="733.94" y="309.6">o</tspan><tspan class="cls-83" x="765.37" y="309.6">p</tspan><tspan class="cls-64" x="825.78" y="309.6">e</tspan><tspan class="cls-65" x="863.63" y="309.6">r</tspan></text><text class="cls-84" transform="translate(2235.76 1421.12)">contact us</text></g></g></svg>