<svg id="Layer_1" data-name="Layer 1" xmlns="http://www.w3.org/2000/svg" viewBox="0 0 3600 2000"><defs><style>.cls-1{fill:#fff;}.cls-2{fill:#5cb30b;}.cls-3{fill:#93beff;}.cls-4{fill:#9deeff;}.cls-5{fill:#61bdf2;}.cls-6{fill:#f19a5e;}.cls-7{fill:#7aaef0;}.cls-8{fill:#9369bf;}.cls-9{fill:#6b6b6b;}.cls-10{fill:#3b3b3b;}.cls-11{fill:#f3aa78;}.cls-12{fill:#78c034;}.cls-13{fill:#d8e2f0;}.cls-14{fill:#f3ab79;}.cls-15{fill:#0a5cbf;}.cls-16{fill:#3077cf;}.cls-17{fill:#4f4f4f;}.cls-18{fill:#262626;}.cls-19{fill:#aed985;}.cls-20{fill:#bdd3f0;}.cls-21{fill:#69a0e3;}.cls-22{fill:#b9d1ef;}.cls-23{font-size:12px;font-family:MyriadPro-Regular, Myriad Pro;}.cls-24{letter-spacing:-0.01em;}.cls-25{letter-spacing:-0.01em;}.cls-26{font-size:213px;}.cls-26,.cls-36,.cls-53{fill:#1d509f;font-family:ChickenScratchAOE, ChickenScratch AOE;}.cls-27{letter-spacing:-0.04em;}.cls-28{letter-spacing:-0.04em;}.cls-29{letter-spacing:-0.07em;}.cls-30{letter-spacing:0em;}.cls-31{letter-spacing:-0.11em;}.cls-32{letter-spacing:-0.05em;}.cls-33{letter-spacing:-0.09em;}.cls-34{letter-spacing:-0.06em;}.cls-35{letter-spacing:0em;}.cls-36{font-size:129px;}.cls-37{letter-spacing:-0.02em;}.cls-38{letter-spacing:-0.08em;}.cls-39{letter-spacing:-0.04em;}.cls-40{letter-spacing:-0.13em;}.cls-41{letter-spacing:0em;}.cls-42{letter-spacing:-0.03em;}.cls-43{letter-spacing:-0.07em;}.cls-44{letter-spacing:-0.11em;}.cls-45{letter-spacing:-0.05em;}.cls-46{letter-spacing:-0.22em;}.cls-47{letter-spacing:-0.03em;}.cls-48{letter-spacing:-0.07em;}.cls-49{letter-spacing:-0.11em;}.cls-50{letter-spacing:-0.04em;}.cls-51{letter-spacing:-0.11em;}.cls-52{letter-spacing:0.01em;}.cls-53{font-size:155px;}.cls-54{letter-spacing:-0.04em;}.cls-55{letter-spacing:-0.12em;}.cls-56{letter-spacing:-0.08em;}.cls-57{letter-spacing:0em;}.cls-58{letter-spacing:0em;}.cls-59{letter-spacing:-0.04em;}.cls-60{letter-spacing:-0.1em;}.cls-61{letter-spacing:-0.06em;}.cls-62{letter-spacing:-0.07em;}.cls-63{letter-spacing:-0.11em;}.cls-64{letter-spacing:-0.05em;}.cls-65{letter-spacing:-0.08em;}.cls-66{letter-spacing:-0.05em;}.cls-67{letter-spacing:-0.11em;}</style></defs><title>7323</title><rect class="cls-1" width="3600" height="2000"/><rect class="cls-2" x="2305.86" y="1295" width="516.58" height="147.33" rx="73.67"/><path class="cls-1" d="M2415.57,1374.9l7-.68a8.59,8.59,0,0,0,2.57,5.2,7.79,7.79,0,0,0,5.24,1.66,8,8,0,0,0,5.26-1.48,4.38,4.38,0,0,0,1.77-3.45,3.27,3.27,0,0,0-.74-2.16,6,6,0,0,0-2.6-1.55q-1.28-.43-5.79-1.56-5.8-1.44-8.15-3.54a9.4,9.4,0,0,1-1.75-12.32,9.71,9.71,0,0,1,4.47-3.63,17.88,17.88,0,0,1,7-1.24q6.75,0,10.15,2.95a10.42,10.42,0,0,1,3.57,7.89l-7.22.32a6.16,6.16,0,0,0-2-4,7.28,7.28,0,0,0-4.58-1.21,8.27,8.27,0,0,0-4.93,1.29,2.62,2.62,0,0,0-1.15,2.23,2.76,2.76,0,0,0,1.07,2.17c.92.76,3.13,1.56,6.65,2.39a35,35,0,0,1,7.8,2.58,10,10,0,0,1,3.95,3.63,10.68,10.68,0,0,1,1.43,5.71,10.53,10.53,0,0,1-1.71,5.76,10.25,10.25,0,0,1-4.83,4,20.32,20.32,0,0,1-7.79,1.3q-6.8,0-10.43-3.13T2415.57,1374.9Z"/><path class="cls-1" d="M2458.8,1386.55v-29.74h-10.62v-6h28.45v6H2466v29.74Z"/><path class="cls-1" d="M2509.85,1386.55H2502l-3.12-8.13h-14.31l-2.95,8.13h-7.67l13.94-35.79h7.64Zm-13.3-14.16-4.93-13.28-4.84,13.28Z"/><path class="cls-1" d="M2513.71,1386.55v-35.79h15.21a26.13,26.13,0,0,1,8.34,1,8.28,8.28,0,0,1,4.16,3.43,10.35,10.35,0,0,1,1.56,5.64,9.6,9.6,0,0,1-2.36,6.66,11.34,11.34,0,0,1-7.08,3.3,17,17,0,0,1,3.86,3,40.42,40.42,0,0,1,4.12,5.81l4.37,7h-8.64l-5.23-7.79a48.49,48.49,0,0,0-3.81-5.26A5.61,5.61,0,0,0,2526,1372a11.88,11.88,0,0,0-3.64-.4h-1.46v14.94Zm7.23-20.65h5.35a27.75,27.75,0,0,0,6.49-.44,3.88,3.88,0,0,0,2-1.52,4.63,4.63,0,0,0,.74-2.68,4.26,4.26,0,0,0-1-2.92,4.39,4.39,0,0,0-2.72-1.4c-.58-.09-2.34-.13-5.27-.13h-5.64Z"/><path class="cls-1" d="M2557.85,1386.55v-29.74h-10.62v-6h28.44v6h-10.59v29.74Z"/><path class="cls-1" d="M2594.3,1386.55v-35.79h7l14.65,23.9v-23.9h6.72v35.79h-7.25L2601,1363.21v23.34Z"/><path class="cls-1" d="M2628.87,1368.87a22.81,22.81,0,0,1,1.64-9.18,16.75,16.75,0,0,1,3.33-4.9,13.94,13.94,0,0,1,4.63-3.23,19.71,19.71,0,0,1,7.71-1.41q7.92,0,12.66,4.91t4.75,13.64q0,8.67-4.71,13.56t-12.6,4.9q-8,0-12.7-4.87T2628.87,1368.87Zm7.45-.24q0,6.07,2.81,9.22a9.15,9.15,0,0,0,7.13,3.13,9.05,9.05,0,0,0,7.09-3.11q2.78-3.12,2.77-9.34t-2.7-9.18a9.12,9.12,0,0,0-7.16-3,9.22,9.22,0,0,0-7.21,3.06Q2636.32,1362.45,2636.32,1368.63Z"/><path class="cls-1" d="M2674.31,1386.55l-8.55-35.79h7.4l5.39,24.58,6.55-24.58h8.59l6.28,25,5.49-25h7.28l-8.7,35.79h-7.66l-7.13-26.76-7.11,26.76Z"/><path class="cls-3" d="M3600,1470.6c-260.38,1-720.86,306.25-720.86,529.4H3600Z"/><path class="cls-4" d="M0,976.62C95.44,1064.71,183.32,1073,238.32,1073c284,0,473-393,876-393,353,0,446,261.5,471.5,305s124.5,318.37,192,378.18,306.78,219.53,412.5,434.82c27.1,55.2,51,155,51,202H0Z"/><path class="cls-5" d="M313.27,1782.41a7.16,7.16,0,0,0,0,14.31H2019.2a7.09,7.09,0,0,0,7.09-7v-.15a7.08,7.08,0,0,0-7.08-7.11Z"/><path class="cls-6" d="M1275.63,1029.94l-11.77-17-20.71.05a2.85,2.85,0,0,1-2.27-4.58l12.56-16.46L1247,972.25a2.85,2.85,0,0,1,3.65-3.57l19.53,6.85,16.73-12.21a2.85,2.85,0,0,1,4.52,2.37l-.49,20.7,16.78,12.13a2.84,2.84,0,0,1-.85,5l-19.83,5.94-6.36,19.7A2.85,2.85,0,0,1,1275.63,1029.94Z"/><path class="cls-7" d="M1822,654.67l10.92-25.28-14.64-23.32a3.79,3.79,0,0,1,3.56-5.78l27.41,2.57,17.66-21.12a3.78,3.78,0,0,1,6.59,1.6l6,26.86,25.55,10.27a3.78,3.78,0,0,1,.52,6.76l-23.69,14-1.87,27.47a3.78,3.78,0,0,1-6.27,2.58l-20.67-18.19-26.7,6.71A3.79,3.79,0,0,1,1822,654.67Z"/><path class="cls-8" d="M396.3,1349.4l-14-26.79-30-3.66a4.15,4.15,0,0,1-2.47-7l21.16-21.6-5.8-29.68a4.15,4.15,0,0,1,5.92-4.51l27.08,13.44,26.43-14.69a4.16,4.16,0,0,1,6.13,4.25L426.31,1289l22.14,20.59a4.15,4.15,0,0,1-2.14,7.14l-29.81,5-12.75,27.42A4.15,4.15,0,0,1,396.3,1349.4Z"/><polygon class="cls-9" points="1996.82 705.54 1997.17 720.18 1973.67 723.35 1971.54 744.82 1954.34 750.07 1957 758.78 1980 751.76 1982.02 731.41 2006.46 728.12 2005.94 706.08 1996.82 705.54"/><path class="cls-8" d="M695.52,555.63a18,18,0,0,1,20.07-15.25c10,1.39,15.75,9.46,14.8,19.63-1.14,10.15-8.82,17-19.36,15.81C700.33,574.62,694.14,566,695.52,555.63ZM705,529.3l4.71-77.15a11.17,11.17,0,0,1,12.4-10.43l7.68.86a11.17,11.17,0,0,1,9.79,12.89L727.23,531.8Z"/><path class="cls-10" d="M646.59,944c.52,19.14,5.46,60.2,48.85,67,26.94,4.21,61.44-20,59.22-37.75s-7.15-63.05-35.28-73.41C695.87,891.13,645.42,901.26,646.59,944Z"/><path class="cls-11" d="M1008.69,1562.55c6.14,25.77,11,63,12.76,65,.86,1,2.65,7.49,3.51,8.54,28,10.2,52.66-.32,72.18-11.9-15.31-2.71-35.91-5.53-38.78-7.56-10.65-7.51-8.11-34.27-10-58.29C1040.76,1559.71,1022.36,1554.92,1008.69,1562.55Z"/><path class="cls-9" d="M1020.87,1626.12c.18,10.17,6.73,31.9,8.75,31.87,2.42,0,86.65-7.33,94.58-20.25,4.78-7.77-8.19-9.79-27.06-13.52C1077.62,1635.8,1023.21,1632.49,1020.87,1626.12Z"/><path class="cls-11" d="M608.72,1620.05c-19.49,15.28-39.19,27.47-41.67,28.65-1.2.56-7.93.54-9.18,1.09-17.33,24.27-13.79,50.82-7.87,72.72,6.71-14,14.61-33.59,17.67-35.33,4.86-2.78,22.41-13.2,53.92-26C610.92,1649.59,612.4,1635.27,608.72,1620.05Z"/><path class="cls-11" d="M653.09,1081.62l-60.2,109.5s-40.25,50.65-61,76.65c4.46,7.31,8.78,14.79,12.63,22.48,20.62-17.53,64.48-54.73,80.14-75.29,23.14-30.37,65-102.49,65-102.49Z"/><path class="cls-2" d="M813.14,1272.21l-64.38,95s-3.69-6.37,19.36,2.06,171.76,36.21,180.56,46.71c6.23,7.43,52.35,153.3,61.23,172,13.38,5.42,32.83-.6,46.56-2.58.88-70.26-36.33-198.19-46.26-213.18-22.19-33.52-127.83-69.73-175.39-90-7.72-3.29-13.7-6.25-17.41-8C814.66,1272.82,813.14,1272.21,813.14,1272.21Z"/><path class="cls-9" d="M566,1648.94c-9.85-2.55-29.94-2.48-30.46-.52-.62,2.34-16.15,85.44-5.83,96.55,6.21,6.68,11.63-5.27,20.28-22.46C544.08,1700.61,559.24,1649.49,566,1648.94Z"/><path class="cls-12" d="M796.25,1339.06c.56-7.13,15.81-48.77,21.21-65,.17-.52-3.82-9.89-8.13-23.38l-6.18,1-91.54,4.15s-36.86,62.27-32.57,90.87c6,39.94,63.73,181.89,55,188.58-15.85,12.07-93.48,57-133.37,83.8,2.55,15.45,9.69,37,19.48,49.34,32.46-11.28,172.75-67.84,187.17-111.22C820,1518.9,795.3,1351.19,796.25,1339.06Z"/><path class="cls-13" d="M794.77,989.11s-25.21,39.61-40.07,41l52.57,48.64s35.82-53.7,39.56-62.91C846.83,1015.88,814.23,986.85,794.77,989.11Z"/><path class="cls-1" d="M813.18,1228.45c-2.36,21.81,4.37,45.66,4.37,45.66-21.14,4.54-96.08,14.1-114.41-8.22-.66-.8,26-47.73,22.29-66.89-5.41-28.27-28.88-76.2-30.83-78.77-3.26-4.31-15.27,18-15.27,18-14.06.08-46.26-32.6-46.26-32.6s33.3-58,42.47-63.47,84.87-13.69,84.93-13.7c5.57-.4,20.79,12.81,25,17C833.3,1093.18,820.41,1161.6,813.18,1228.45Z"/><path class="cls-11" d="M717.79,1004.11s8.25,27.27,8.31,38.35,4.48,26.17,27.72,23.89,4.18-25.67.88-36.2-7.26-43.77-7.26-43.77Z"/><path class="cls-6" d="M749.65,1003c-1.3-9.07-2.21-16.66-2.21-16.66l-29.65,17.73s1.69,5.58,3.54,12.71C735.25,1018.15,744.61,1012.08,749.65,1003Z"/><path class="cls-11" d="M693.61,921.8a41.93,41.93,0,0,0-15.36,24.63c-3.13,16.09,6.42,55.78,40.94,62s45.74-27.12,36.26-51.33S727.7,902.92,693.61,921.8Z"/><path class="cls-11" d="M758.65,947c0,6.76-3.13,12.26-7.07,12.28s-7.16-5.44-7.2-12.2,3.13-12.26,7.07-12.28S758.61,940.28,758.65,947Z"/><path class="cls-11" d="M693.25,980.72c4.54,5.45,5.24,12.35,1.56,15.42s-10.34,1.14-14.89-4.3-5.23-12.35-1.56-15.42S688.71,975.28,693.25,980.72Z"/><path class="cls-10" d="M658.24,906.65c1.36-18.54,14.48-87.49-27.7-94S579.35,852.16,556,790.14c-21.67-57.47-86.07-35.22-88.76,8.42a38.66,38.66,0,0,0-18.34,2.88c-20.64,8.7-29.92,33.44-20.73,55.25,1.46,3.47.63,6.91,2.77,9.78-4.94,19-1.53,40.73,13.14,62.8,40.08,60.28,80.27-3.17,107.37.21s9.44,24.56,32.91,41.1,42.37,12.2,80.58-32.9l9.43-12.44S656.89,925.19,658.24,906.65Z"/><path class="cls-14" d="M1843.93,1431.84c21.14-8.44,40.07-19.92,42.3-21.1,1.73-.91,8.9-6.19,9.92-6.93,18.64,11.09,25.45,20.52,40.14,35.34-10.87.59-15.48-8.33-19.64-7.4-5,1.12-20.84,11.73-45.58,30.87C1866.79,1448.78,1854.33,1441.8,1843.93,1431.84Z"/><path class="cls-14" d="M1544.68,1648.5a241.6,241.6,0,0,0,14.65,44.34c.51,1.09,3.78,1.94,4.34,3.07-14,16.53-20.09,44-37.15,56.06,1.22-10.82,8.48-31.12,8.26-35.38-.27-5.14-8.1-22.5-22.86-50.08C1526.27,1664.59,1533.13,1657.1,1544.68,1648.5Z"/><path d="M1553.55,1697.39c1.92-4.81,8.24-8.14,12.73-5.29s10.55,6,15,9.11c5.06,3.51,5.41,7.44,5.29,8.34-.37,2.57-60.12,72.45-67.78,73.46s6.5-58.08,14.9-64.15C1541.2,1713.45,1545,1719,1553.55,1697.39Z"/><path d="M1894.37,1410.79c-4.39-2.74-6.53-9.56-2.92-13.47s7.79-9.3,11.66-13.17c4.35-4.34,8.29-4,9.14-3.7,2.47.82,60.52,72.11,60.15,79.82s-56-16.79-60.45-26.13C1908,1425.82,1914.12,1423.13,1894.37,1410.79Z"/><path class="cls-15" d="M1567.55,1388s117.85,158.81,138.35,160.27c19.18,1.38,167.81-81.5,167.81-81.5l-19.33-42.8-119,42.8L1652.48,1310Z"/><path class="cls-16" d="M1635.39,1253.84s21.58,5.14,33.9,38-8.28,60.19-60,107.84c-50.31,46.38-100,90-100,90l40.79,167.95-33.9,28.76s-78.58-170.68-80.86-211.32c-.88-15.53,119.9-195.51,119.9-195.51Z"/><path class="cls-11" d="M1544.21,1048.21l-65.7,36.75-52.06,25s-12.71-43.21-8.44-64.39c.6-3,3.6-6.61,4.68-8.21,8.58-12.88-9.76-32.88-9.76-32.88s-11.06-3.14-18.57,15.1,6.36,26,6.36,26-15.83,55.22-9.2,95.46c3.47,21.08,56.18,5.6,98.17-12.56a448.74,448.74,0,0,0,61.31-32.31Z"/><path class="cls-2" d="M1559,1041.91c-1.39-1.3-3.68-2.07-7.4-.68-8.14,3-87,46.35-87,46.35s7.08,37.9,25.57,49.55l39.74-12.13,30.39-76.83A5.72,5.72,0,0,0,1559,1041.91Z"/><path class="cls-8" d="M1740.57,879.89c-29.94-18.33-67.27-14.79-89.49,9.85-18.29-6.88-39.25-6.34-56.22,1.58-33.47,15.63-63.09,56.45-37.87,86.09-5.36,39.34,18.18,62.22,47.5,64.83,15.94,32,72.45,35.27,105,8.93,26.86,10.38,58.76,5.9,78.63-13.48,4.76-4.65,11.75-12.1,13.34-12.78-1.92,1,74.84-9.21,71.34-76.88C1869.2,879,1786.57,852.48,1740.57,879.89Z"/><path class="cls-12" d="M1604.53,1036.67l48.73,2.69-8.09,68.09s-23.51,65.52-13.92,97,18.83,54.45,18.83,54.45-27.74,31.85-105.48,25.34c0,0,1-56.5,0-73.63s-20.89-88.35-18.15-104.45,19.87-60.62,24.32-64.38,22.09-5.65,22.09-5.65Z"/><path class="cls-11" d="M1606.83,999.28s-.84,5.51-1.64,12.58c-1,8.82-1.92,20.08-1.09,26.1,1.51,10.85-8.7,39.45-31.76,40.49s-.48-31.59,1.26-42.35,1.73-50,1.73-50Z"/><path class="cls-6" d="M1575.52,1002.72c0-9.06-.19-16.6-.19-16.6l31.5,13.16s-.87,5.69-1.68,12.93C1591.73,1015.47,1581.72,1010.86,1575.52,1002.72Z"/><path class="cls-11" d="M1609.2,918.41a39.76,39.76,0,0,1,20.25,18.64c6.92,13.91,8.19,52.6-21.79,67s-48.64-13.27-46.08-37.78S1573.28,909.74,1609.2,918.41Z"/><path class="cls-11" d="M1556.12,957.87c1.67,6.19,6,10.41,9.55,9.44s5.17-6.78,3.5-13-6-10.41-9.55-9.44S1554.45,951.68,1556.12,957.87Z"/><path class="cls-11" d="M1625.84,971.11c-2.78,6.12-1.68,12.61,2.45,14.49s9.75-1.56,12.52-7.68,1.68-12.61-2.45-14.49S1628.61,965,1625.84,971.11Z"/><path class="cls-17" d="M976.2,1268.85c-4.58-13.35-191.12-556.74-199.27-580.47-12.48-36.35-52.4-55.88-89.18-43.63L409.52,737.41c-36.77,12.25-56.47,51.64-44,88l199.27,580.48c12.48,36.34,52.4,55.87,89.18,43.62l278.23-92.66C969,1344.58,988.67,1305.19,976.2,1268.85Zm-67.58,14.65-281.09,93.61A40.74,40.74,0,0,1,576.1,1352L391.79,815.07a39.88,39.88,0,0,1,25.38-50.75l281.09-93.61a40.75,40.75,0,0,1,51.43,25.16L934,1232.76A39.86,39.86,0,0,1,908.62,1283.5Z"/><path class="cls-10" d="M836.55,1346.46c4.29,12.49-15.39,30.33-43.95,39.84s-55.2,7.1-59.49-5.39,15.39-30.34,44-39.85S832.27,1334,836.55,1346.46Z"/><path class="cls-17" d="M829,1347.46c4,11.74-12.27,27.76-36.4,35.8s-47,5-51-6.69,12.27-27.77,36.4-35.81S824.92,1335.72,829,1347.46Z"/><path class="cls-18" d="M1853.34,725.44l-312.66-70.68c-41.32-9.35-82.07,15.11-91,54.62L1307,1340.47c-8.93,39.52,17.33,79.12,58.65,88.46l312.66,70.69c41.32,9.34,82.06-15.12,91-54.63L1912,813.9C1920.92,774.39,1894.66,734.78,1853.34,725.44Zm-103,663.83c-5.15,22.78-28.65,36.89-52.48,31.5L1382,1349.36c-23.83-5.39-39-28.23-33.83-51l132-583.7c5.15-22.79,28.65-36.89,52.49-31.5l315.86,71.41c23.84,5.38,39,28.23,33.83,51Z"/><path class="cls-9" d="M1594.77,1437.42c-3.07,13.58-31.58,18.71-63.68,11.45s-55.64-24.15-52.56-37.73,31.58-18.71,63.68-11.45S1597.84,1423.84,1594.77,1437.42Z"/><path class="cls-18" d="M1587.09,1434.12c-2.88,12.76-27.21,18.13-54.32,12s-46.77-21.44-43.89-34.2,27.21-18.13,54.33-12S1590,1421.36,1587.09,1434.12Z"/><path class="cls-11" d="M1651.3,1057s102.75-25,125.65-29.15S1879.34,995,1882.4,993.79s14.37-42.1,18.86-39.25-6.88,20.62-1.27,22.92,53.48-19.14,53.81-15.26c.62,7.25-28.79,14.23-27.86,17.56s30-10.1,33.59-5.11-28.74,10.17-29.32,13,31-.85,29.3,5.15c-.93,3.25-28.19,2.57-27,6.36s21.91,7.51,20.47,11.15-17-5.43-27.69-2.71-19.88-.79-35.67,8.48-67.61,48.38-104.46,56.46-118.23,26.15-118.23,26.15Z"/><path class="cls-12" d="M1626.41,1041.21c3.48-1.67,14.15-1.94,26.84-1.84,4.67,0,11.25.07,16.24-.07,18.56-.53,36.19.34,36.19.34s9.33,45.09,1.56,56.61c0,0-72.61,10.37-70.86,15.42Z"/><path class="cls-11" d="M1374.63,1041.46l6.25-7.9s3.89-6,9.74-6.62,5.67-7.93-.52-6.88a58.6,58.6,0,0,0-10.1,2.52s12.32-6.33,12.53-7.15c1.23-4.61-5.57-6.4-14.67.36S1374.63,1041.46,1374.63,1041.46Z"/><path class="cls-11" d="M535.64,1278.89a64.87,64.87,0,0,0-8,5.07c.06-.13.12-.26.19-.39,1.31-1.38,5.8-6.19,5.84-6.22,5.92-4.51,2.81-9.33-2.72-6.34a58.83,58.83,0,0,0-8.73,5.65s9.59-9.35,9.55-10.81c-.14-4.77-7.35-4.26-13.78,5.07-5.63,8.18,2.68,22.47,5.09,25.85a17.25,17.25,0,0,0,6.73,7.19l1.47-9.32s1.73-7,7.07-9.41S541.17,1275.9,535.64,1278.89Z"/><path class="cls-11" d="M1397.32,1012.82s14.6-11.73,16.92-6.74,1.31,15.78-.87,15-1.89-8.46-8.16-6.45C1403.46,1015.21,1394.77,1018,1397.32,1012.82Z"/><path class="cls-19" d="M1653.1,612.63,1128.73,500.81a54.55,54.55,0,0,1-42-64.73l10.06-47.18a54.55,54.55,0,0,1,64.73-42l524.37,111.82a54.55,54.55,0,0,1,42,64.73l-10.06,47.18A54.55,54.55,0,0,1,1653.1,612.63Z"/><polygon class="cls-19" points="1559.58 573.77 1607.86 639.74 1623.34 590.93 1559.58 573.77"/><path class="cls-1" d="M1256.22,425.59c-2.52,11.84-15.36,19.14-28.68,16.29s-22.07-14.73-19.55-26.57,15.37-19.14,28.69-16.3S1258.75,413.75,1256.22,425.59Z"/><path class="cls-1" d="M1218.44,440h8.91a31,31,0,0,1,31,31v16.27a0,0,0,0,1,0,0h-70.89a0,0,0,0,1,0,0V471a31,31,0,0,1,31-31Z" transform="translate(123.57 -244.82) rotate(12.04)"/><path class="cls-1" d="M1463.83,484.92c-4.89,22.93-42,34.46-82.88,25.75s-70.06-34.38-65.16-57.32,42-34.47,82.87-25.75S1468.72,462,1463.83,484.92Z"/><polygon class="cls-1" points="1396.3 502.73 1372.64 525 1428.69 511.74 1426.6 475.58 1396.3 502.73"/><path class="cls-1" d="M1568.26,499.46l8.48-4.21a6.12,6.12,0,0,0,3.18-7.08c-1.48-5.52-4.65-14.61-10.63-21.73a6.12,6.12,0,0,0-7.36-1.55l-14.83,7.24a6.15,6.15,0,0,0-3.39,4.78c-1,8.74-2.16,32.84,13,53.19,17.33,23.18,35.14,34.92,47.64,40.59a6.13,6.13,0,0,0,6.19-.66l13.65-10.15a6.12,6.12,0,0,0,1.81-7.69A48.17,48.17,0,0,0,1606.39,532a6.13,6.13,0,0,0-7,.79l-5.1,4.54a6.12,6.12,0,0,1-7.48.5c-5-3.34-13.48-11.44-21.46-30.49A6.11,6.11,0,0,1,1568.26,499.46Z"/><path class="cls-16" d="M1052.89,1034l-79.07-48a17,17,0,0,1-5.7-23.36l48-79.07a17,17,0,0,1,23.37-5.7l79.06,48a17,17,0,0,1,5.7,23.37l-48,79.06A17,17,0,0,1,1052.89,1034Z"/><path class="cls-1" d="M1094.54,969.4c2.93-3,2-8.72-2.36-12.54a219.41,219.41,0,0,0-64.13-39.48c-5.36-2.14-10.89-.35-12.23,3.71h0c-11,32.39-7.17,20.23-11.91,39a9.08,9.08,0,0,0,5.52,10.52h0a9.18,9.18,0,0,0,11.65-4.41c1.11-2.38,2.23-4.75,3.35-7.13,1.26-2.73,4.81-3.78,7.88-2.21a184.38,184.38,0,0,1,23.16,14c2.81,2,3.54,5.61,1.72,8l-4.74,6.2a9,9,0,0,0,1.6,12.21h0a9.21,9.21,0,0,0,11.87.07C1069.4,994.31,1088.5,975.68,1094.54,969.4Z"/><path class="cls-16" d="M1033.33,930a6.39,6.39,0,0,1,2.34,2.48l2.66-4.37-5.63-3.42-2.65,4.37A6.37,6.37,0,0,1,1033.33,930Z"/><path class="cls-16" d="M1024.44,932.15a6.53,6.53,0,0,1,2.48-2.34l-4.36-2.65-3.42,5.62,4.36,2.66A6.57,6.57,0,0,1,1024.44,932.15Z"/><path class="cls-16" d="M1026.61,941a6.46,6.46,0,0,1-2.34-2.48l-2.66,4.37,5.63,3.41,2.65-4.36A6.46,6.46,0,0,1,1026.61,941Z"/><path class="cls-16" d="M1036.43,935.59a6.37,6.37,0,0,1-.94,3.28,6.46,6.46,0,0,1-2.47,2.35l4.36,2.65,3.42-5.63Z"/><path class="cls-16" d="M1033.34,937.56a3.94,3.94,0,1,1-1.32-5.42A3.95,3.95,0,0,1,1033.34,937.56Z"/><path class="cls-16" d="M1083.23,968.48a8.44,8.44,0,1,1-2.83-11.59A8.45,8.45,0,0,1,1083.23,968.48Z"/><path class="cls-8" d="M1127.37,667.91a35.75,35.75,0,0,1,19.89-24.29c15.17-7,31.54.84,38.41,15.66,8,17.16,3.12,44.07-25.71,78.88-45.2-.47-68.87-14.16-76.83-31.31-6.88-14.82-2.32-32.4,12.86-39.44A35.73,35.73,0,0,1,1127.37,667.91Z"/><path class="cls-16" d="M579.05,594.35,478.6,642.21A23.77,23.77,0,0,1,446.91,631l-27-56.57a23.76,23.76,0,0,1,11.23-31.68l100.46-47.87a23.78,23.78,0,0,1,31.68,11.24l27,56.56A23.79,23.79,0,0,1,579.05,594.35Z"/><polygon class="cls-16" points="437.59 600.12 416.08 664.22 463.87 628.89 437.59 600.12"/><path class="cls-1" d="M473.06,575.33l12.7-6.46s10.3-19.91,8.72-24.41-8.61-12.24-6.65-14.59,6.83-5.82,12.92-1.81c4.43,2.92,9.67,18.86,11.66,19.13,1.25.17,8.65-3.34,14-6a10.57,10.57,0,0,1,10.91.94h0a5.64,5.64,0,0,1,1.82,6.86l-1.7,3.78,3.7,1.9a5.62,5.62,0,0,1,2.46,7.55l-1.42,2.81,2.4,1a5.64,5.64,0,0,1,2.74,7.93L546,576.39l.57.4a5.65,5.65,0,0,1,1.57,7.45l-1.37,2.31L513,603.75a26.06,26.06,0,0,1-10.19,2.77l-12.9,4.08a2.94,2.94,0,0,1-3.53-1.51l-14.59-29.85A2.94,2.94,0,0,1,473.06,575.33Z"/><path class="cls-1" d="M1304.17,732.46c75.93-17.24,146.07,6.59,156.66,53.24,5.3,23.32-5.29,47.93-26.7,68.86l46.43,61.77-77-38.73a214.89,214.89,0,0,1-61,23.78c-75.93,17.24-146.08-6.59-156.67-53.24S1228.23,749.71,1304.17,732.46Z"/><path class="cls-20" d="M1377.29,813.45a49.13,49.13,0,1,1-47.11-51.09A49.12,49.12,0,0,1,1377.29,813.45Z"/><path class="cls-1" d="M1301.64,818.18a26.27,26.27,0,0,0,52.5,2.12Z"/><polygon class="cls-8" points="348.96 949.72 323.91 954.71 327.02 978.32 302.56 984.33 302.75 1007.25 285.18 1014.75 288.97 1023.64 312.47 1013.62 312.29 991.9 337.74 985.64 334.68 962.42 357.38 957.9 348.96 949.72"/><polygon class="cls-20" points="2017.8 1143.87 2010.81 1119.3 1987.53 1124.29 1979.57 1100.39 1956.74 1102.41 1947.86 1085.5 1939.3 1089.99 1951.17 1112.62 1972.81 1110.69 1981.09 1135.56 2003.98 1130.65 2010.32 1152.91 2017.8 1143.87"/><polygon class="cls-12" points="353.11 687.61 339.11 691.91 329.7 670.14 308.45 673.9 298.75 658.76 291.09 663.67 304.06 683.92 324.2 680.36 333.98 703 355.06 696.53 353.11 687.61"/><path class="cls-11" d="M872.23,775.64c-4.89-4-16.3-7.34-22-7.85s-30.49-.49-33.71,5.47,22.83,22.87,24.22,29.89-15.08,116.08-19.84,137.73c-2.34,10.68-11.34,30.8-19.87,48.45,12.26,2,27.24,12,36.65,19.14,12.06-26.38,24.4-56,25.93-70C866.73,910.36,877.12,779.67,872.23,775.64Z"/><path class="cls-9" d="M944.17,587.51c-8.46-.71-52.67,33-52.67,33l-2,2.64s59.69,10.09,62.49,8.22C959.58,626.32,951.11,588.1,944.17,587.51Zm-52.52,34c14.4-10.48,44.09-23.32,50.48-26,3.29,6.07,6.29,22,5.41,28.62C940.5,623.62,909.11,624.33,891.65,621.55Z"/><path class="cls-9" d="M879.59,559.56c-7.65-20.47-15.12-19.51-20.41-18.82s-29.12,17.55-26.89,30.52,49.87,50.83,49.87,50.83l3.16-3.66S887.24,580,879.59,559.56ZM839.54,570c-1.11-6.47,15.41-20.25,20.84-22a8.58,8.58,0,0,1,3.19,0c1,.29,4.64,2.16,9.13,14.18,4.91,13.13,10,43.52,10,55.65C863.67,601.91,840.78,575.56,839.54,570Z"/><rect class="cls-9" x="877.46" y="615.8" width="17.62" height="12.39" rx="4.84" transform="translate(44.81 1303.38) rotate(-74.06)"/><path class="cls-21" d="M931,797.15,766.58,750.2a17.54,17.54,0,0,1-12.32-20.57l29.09-134.52,214.11,61.14-48.25,135C947.19,796.88,939.17,799.49,931,797.15Z"/><path class="cls-22" d="M998.08,687.59,765.51,621.66l1.8-15.65a15.27,15.27,0,0,1,19.41-12.94l210.17,60.64c7.47,2.16,12,8.44,9.81,13.59Z"/><rect class="cls-9" x="867.32" y="635.84" width="32.95" height="4.6" transform="translate(27.54 1312.79) rotate(-74.07)"/><rect class="cls-9" x="805.42" y="711.94" width="123.85" height="5.75" transform="translate(-58.13 1352.59) rotate(-74.07)"/><path class="cls-11" d="M829.85,775.46l.6-7A151.81,151.81,0,0,1,815,763.1l-.91-5.34c-2.95-7.32-6.24-2.1-7.19-.43,0,0-.24,9.39.81,10.49,0,0,11.09,11.71,15.82,16.13,2.34,2.2,9.82,8.27,9.82,8.27l5.94-8.25Z"/><text class="cls-23" transform="translate(1942.11 235.79)"><tspan class="cls-24">L</tspan><tspan x="5.5" y="0">o</tspan><tspan class="cls-25" x="12.08" y="0">r</tspan><tspan x="15.89" y="0">em ipsum</tspan></text><text class="cls-26" transform="translate(2307.48 577)"><tspan class="cls-27">R</tspan><tspan x="84.87" y="0">e</tspan><tspan class="cls-28" x="162.45" y="0">f</tspan><tspan class="cls-29" x="226.52" y="0">e</tspan><tspan class="cls-30" x="289.03" y="0">r </tspan><tspan class="cls-31" x="440.46" y="0">a</tspan><tspan class="cls-32" x="506.29" y="0">n</tspan><tspan x="607.38" y="0">d </tspan><tspan class="cls-28" x="781.49" y="0">E</tspan><tspan class="cls-33" x="947.06" y="0">a</tspan><tspan class="cls-34" x="1017.37" y="0">r</tspan><tspan class="cls-35" x="1083.51" y="0">n</tspan></text><text class="cls-36" transform="translate(2300.84 849.96)"><tspan class="cls-37">B</tspan><tspan class="cls-38" x="68.59" y="0">e</tspan><tspan x="105.57" y="0">c</tspan><tspan class="cls-39" x="147.9" y="0">o</tspan><tspan x="192.05" y="0">me a </tspan><tspan class="cls-40" x="463.03" y="0">P</tspan><tspan class="cls-41" x="513.54" y="0">r</tspan><tspan class="cls-39" x="561.79" y="0">o</tspan><tspan class="cls-37" x="605.95" y="0">m</tspan><tspan class="cls-42" x="685.88" y="0">o</tspan><tspan class="cls-43" x="731.86" y="0">te</tspan><tspan x="805.49" y="0">r </tspan><tspan class="cls-44" x="897.21" y="0">a</tspan><tspan class="cls-45" x="937.08" y="0">n</tspan><tspan x="998.3" y="0">d </tspan><tspan class="cls-46" x="0" y="154.8">I</tspan><tspan class="cls-43" x="18.46" y="154.8">n</tspan><tspan class="cls-47" x="76.91" y="154.8">s</tspan><tspan class="cls-48" x="121.5" y="154.8">t</tspan><tspan class="cls-49" x="157.28" y="154.8">a</tspan><tspan class="cls-50" x="197.15" y="154.8">n</tspan><tspan class="cls-51" x="259.26" y="154.8">t</tspan><tspan class="cls-28" x="290.5" y="154.8">l</tspan><tspan x="319.1" y="154.8">y </tspan><tspan class="cls-28" x="404.7" y="154.8">E</tspan><tspan class="cls-33" x="504.98" y="154.8">a</tspan><tspan class="cls-34" x="547.56" y="154.8">r</tspan><tspan class="cls-41" x="587.62" y="154.8">n N200 </tspan><tspan class="cls-48" x="1024.32" y="154.8">o</tspan><tspan class="cls-41" x="1064.82" y="154.8">n </tspan><tspan x="0" y="309.6">e</tspan><tspan class="cls-47" x="46.99" y="309.6">v</tspan><tspan class="cls-48" x="97.25" y="309.6">e</tspan><tspan class="cls-41" x="135.11" y="309.6">ry </tspan><tspan class="cls-52" x="268.96" y="309.6">r</tspan><tspan class="cls-41" x="319.04" y="309.6">e</tspan><tspan class="cls-28" x="366.03" y="309.6">f</tspan><tspan class="cls-48" x="404.83" y="309.6">e</tspan><tspan x="442.68" y="309.6">r</tspan><tspan class="cls-52" x="490.93" y="309.6">r</tspan><tspan class="cls-51" x="541.01" y="309.6">e</tspan><tspan x="574.33" y="309.6">d c</tspan><tspan class="cls-43" x="722.1" y="309.6">u</tspan><tspan class="cls-47" x="770.41" y="309.6">s</tspan><tspan class="cls-48" x="815.01" y="309.6">t</tspan><tspan class="cls-39" x="850.78" y="309.6">o</tspan><tspan x="894.94" y="309.6">m</tspan><tspan class="cls-48" x="977.58" y="309.6">e</tspan><tspan class="cls-41" x="1015.43" y="309.6">r</tspan></text><text class="cls-53" transform="translate(38.52 233.44)">G<tspan class="cls-54" x="81.51" y="0">S</tspan><tspan x="145.39" y="0">F FU</tspan><tspan class="cls-28" x="526.76" y="0">N</tspan><tspan x="605.17" y="0">A</tspan><tspan class="cls-55" x="681.23" y="0">A</tspan><tspan x="738.67" y="0">B </tspan><tspan class="cls-55" x="876.57" y="0">P</tspan><tspan class="cls-56" x="938.33" y="0">o</tspan><tspan class="cls-47" x="985.93" y="0">s</tspan><tspan x="1039.51" y="0">t U</tspan><tspan class="cls-33" x="1239.02" y="0">T</tspan><tspan class="cls-54" x="1329.53" y="0">M</tspan><tspan class="cls-57" x="1423.84" y="0">E </tspan><tspan class="cls-47" x="1601.99" y="0">p</tspan><tspan class="cls-55" x="1673.44" y="0">a</tspan><tspan class="cls-47" x="1720.21" y="0">s</tspan><tspan class="cls-58" x="1773.8" y="0">t </tspan><tspan class="cls-59" x="1879.98" y="0">q</tspan><tspan x="1932.43" y="0">u</tspan><tspan class="cls-60" x="2001.45" y="0">e</tspan><tspan class="cls-47" x="2042.62" y="0">s</tspan><tspan class="cls-60" x="2096.21" y="0">t</tspan><tspan class="cls-61" x="2134.88" y="0">i</tspan><tspan class="cls-62" x="2168.64" y="0">on</tspan><tspan x="2287.54" y="0">s </tspan><tspan class="cls-63" x="2397.73" y="0">a</tspan><tspan class="cls-64" x="2445.64" y="0">n</tspan><tspan x="2519.2" y="0">d </tspan><tspan class="cls-59" x="2645.9" y="0">d</tspan><tspan class="cls-34" x="2713.79" y="0">e</tspan><tspan class="cls-62" x="2760.41" y="0">t</tspan><tspan class="cls-33" x="2803.4" y="0">a</tspan><tspan class="cls-65" x="2854.56" y="0">i</tspan><tspan class="cls-66" x="2885.06" y="0">l</tspan><tspan class="cls-67" x="2917.22" y="0">e</tspan><tspan x="2957.26" y="0">d s</tspan><tspan class="cls-64" x="3141.93" y="0">o</tspan><tspan class="cls-34" x="3193.92" y="0">l</tspan><tspan x="3223.89" y="0">u</tspan><tspan class="cls-60" x="3292.92" y="0">t</tspan><tspan class="cls-61" x="3331.59" y="0">i</tspan><tspan class="cls-62" x="3365.35" y="0">on</tspan><tspan x="3484.25" y="0">s</tspan></text></svg>